<mxfile host="app.diagrams.net" modified="2022-12-16T03:47:51.870Z" agent="5.0 (Macintosh; Intel Mac OS X 10_15_7) AppleWebKit/537.36 (KHTML, like Gecko) Chrome/108.0.0.0 Safari/537.36" etag="MJpsatqAXCOPV17EBNrX" version="20.6.0" type="github">
  <diagram id="3228e29e-7158-1315-38df-8450db1d8a1d" name="Page-1">
    <mxGraphModel dx="642" dy="482" grid="0" gridSize="10" guides="1" tooltips="1" connect="1" arrows="1" fold="1" page="1" pageScale="1" pageWidth="600" pageHeight="430" background="#EFF1F3" math="0" shadow="0">
      <root>
        <mxCell id="0" />
        <mxCell id="1" parent="0" />
        <mxCell id="I8ODeFikB3_Pxrsl2uY8-1" value="&lt;font style=&quot;font-size: 20px;&quot; color=&quot;#eff1f3&quot;&gt;sock&lt;/font&gt;" style="rounded=1;whiteSpace=wrap;html=1;fillColor=#123F67;strokeColor=none;" parent="1" vertex="1">
          <mxGeometry x="217" y="27.75" width="169" height="78.5" as="geometry" />
        </mxCell>
        <mxCell id="Cc0OR5DpWGdqYDi1uymj-2" value="&lt;span style=&quot;color: rgb(239, 241, 243); font-size: 20px;&quot;&gt;tcp_sock&lt;/span&gt;" style="rounded=1;whiteSpace=wrap;html=1;fillColor=#7EC4C3;strokeColor=none;" parent="1" vertex="1">
          <mxGeometry x="217" y="330" width="169" height="78" as="geometry" />
        </mxCell>
        <mxCell id="Cc0OR5DpWGdqYDi1uymj-4" value="&lt;span style=&quot;color: rgb(239, 241, 243); font-size: 20px;&quot;&gt;inet_sock&lt;/span&gt;" style="rounded=1;whiteSpace=wrap;html=1;fillColor=#35699A;strokeColor=none;" parent="1" vertex="1">
          <mxGeometry x="217" y="128" width="169" height="78.5" as="geometry" />
        </mxCell>
        <mxCell id="Cc0OR5DpWGdqYDi1uymj-5" value="&lt;span style=&quot;color: rgb(239, 241, 243);&quot;&gt;&lt;font style=&quot;font-size: 16px;&quot;&gt;inet_connection_sock&lt;/font&gt;&lt;/span&gt;" style="rounded=1;whiteSpace=wrap;html=1;fillColor=#538AAF;strokeColor=none;" parent="1" vertex="1">
          <mxGeometry x="217" y="229" width="169" height="78.5" as="geometry" />
        </mxCell>
        <mxCell id="Cc0OR5DpWGdqYDi1uymj-7" value="" style="shape=flexArrow;endArrow=classic;html=1;rounded=0;fontSize=16;fontColor=#EFF1F3;fillColor=#FDD276;strokeColor=none;" parent="1" edge="1">
          <mxGeometry width="50" height="50" relative="1" as="geometry">
            <mxPoint x="424" y="100" as="sourcePoint" />
            <mxPoint x="424" y="406" as="targetPoint" />
          </mxGeometry>
        </mxCell>
        <mxCell id="Cc0OR5DpWGdqYDi1uymj-8" value="&lt;font color=&quot;#808080&quot; style=&quot;font-size: 23px;&quot;&gt;继承&lt;/font&gt;" style="text;html=1;strokeColor=none;fillColor=none;align=center;verticalAlign=middle;whiteSpace=wrap;rounded=0;fontSize=16;fontColor=#EFF1F3;" parent="1" vertex="1">
          <mxGeometry x="395" y="52" width="60" height="30" as="geometry" />
        </mxCell>
      </root>
    </mxGraphModel>
  </diagram>
</mxfile>
